<?xml version="1.0" encoding="utf-8"?>
<!-- Svg Vector Icons : http://www.onlinewebfonts.com/icon -->
<!DOCTYPE svg PUBLIC "-//W3C//DTD SVG 1.1//EN" "http://www.w3.org/Graphics/SVG/1.1/DTD/svg11.dtd">
<svg version="1.1" xmlns="http://www.w3.org/2000/svg" xmlns:xlink="http://www.w3.org/1999/xlink" x="0px" y="0px" viewBox="0 0 1000 1000" enable-background="new 0 0 1000 1000" xml:space="preserve">
<metadata> Svg Vector Icons : http://www.onlinewebfonts.com/icon </metadata>
<g><path d="M500,990C229.4,990,10,770.6,10,500C10,229.4,229.4,10,500,10c270.6,0,490,219.4,490,490C990,770.6,770.6,990,500,990L500,990z M742.7,478.8c0-20.8-16.9-37.7-37.7-37.7H554.3V290.3c0-20.8-16.9-37.7-37.7-37.7h-37.7c-20.8,0-37.7,16.9-37.7,37.7v150.8H290.4c-20.8,0-37.7,16.9-37.7,37.7v37.7c0,20.8,16.9,37.7,37.7,37.7h150.8V705c0,20.8,16.9,37.7,37.7,37.7h37.7c20.8,0,37.7-16.9,37.7-37.7V554.2H705c20.8,0,37.7-16.9,37.7-37.7V478.8L742.7,478.8z"/></g>
</svg>